<?xml version="1.0" standalone="no"?>
<svg xmlns="http://www.w3.org/2000/svg" viewBox="0 0 1440 320" preserveAspectRatio="none">
    <path fill="#0099ff" fill-opacity="1" d="M0,128L40,144C80,160,160,192,240,181.3C320,171,400,117,480,122.7C560,128,640,192,720,202.7C800,213,880,171,960,144C1040,117,1120,107,1200,112C1280,117,1360,139,1400,149.3L1440,160L1440,320L1400,320C1360,320,1280,320,1200,320C1120,320,1040,320,960,320C880,320,800,320,720,320C640,320,560,320,480,320C400,320,320,320,240,320C160,320,80,320,40,320L0,320Z"></path>
</svg>